<?xml version="1.0" encoding="utf-8"?>
<!-- Generator: Adobe Illustrator 24.1.2, SVG Export Plug-In . SVG Version: 6.00 Build 0)  -->
<svg version="1.1" id="Layer_1" xmlns="http://www.w3.org/2000/svg" xmlns:xlink="http://www.w3.org/1999/xlink" x="0px" y="0px"
	 viewBox="0 0 271 250.8" style="enable-background:new 0 0 271 250.8;" xml:space="preserve">
<style type="text/css">
	.st0{fill:#E74700;stroke:#E74700;stroke-width:23;stroke-miterlimit:10;}
	.st1{fill:#E74700;stroke:#E74700;stroke-width:21;stroke-miterlimit:10;}
	.st2{fill:#FEFEFE;}
</style>
<g id="Layer_2_1_">
	<g id="Layer_1-2">
		<rect x="88.8" y="24.4" class="st0" width="47.3" height="67"/>
		<path class="st1" d="M213.5,90.1h-20.4c-6,0-10.8-4.8-10.8-10.8V27.2c0-6,4.8-10.8,10.8-10.8h20.4c6,0,10.8,4.8,10.8,10.8v52.1
			C224.3,85.3,219.5,90.1,213.5,90.1z"/>
		<path d="M270,58.7c-2,7.2-3.2,14.6-4.7,21.9c-4.7,22.6-9.3,45.2-13.9,67.8c-1.6,7.9-6.6,11.7-15.2,11.7H77.4c-3.9,0-3.9,0-3.1,3.9
			c0.9,4.1,1.8,8.3,2.5,12.4c0.4,2.1,1.1,2.8,3.4,2.8c51.6-0.1,103.2-0.1,154.8-0.1c3,0,5.6,0.5,7.4,3.2c2,3,1.2,7-1.8,9
			c-0.7,0.5-1.6,0.8-2.5,1c-1.1,0.2-2.3,0.2-3.4,0.2H79.6c-9.2,0-13.7-3.6-15.6-12.8C53.6,129,43.2,78.5,32.8,28
			c-0.2-1.7-1.4-3.2-3.1-3.7c-8.8-3.7-17.6-7.5-26.4-11.4c-2.9-1.1-4.7-4.1-4.3-7.2c0.5-3.1,3-5.4,6.1-5.7C6.5-0.1,7.8,0.2,9,0.9
			c9.2,4,18.4,8,27.6,11.9c4.7,1.9,8.1,6.2,8.9,11.2c1.1,5.5,2.3,11,3.3,16.6c0.3,1.9,1.1,2.5,3.1,2.5c20.2-0.1,40.4,0,60.6,0
			c47.4,0,94.7,0,142.1,0c5.8,0,10.6,1.6,13.6,6.8c0.7,1.3,1.3,2.6,1.8,4V58.7z"/>
		<path d="M172.5,226.6c0.2-13.2,11-23.6,24.2-23.4c0,0,0,0,0,0c13,0.4,23.5,11.2,23.4,23.9c-0.2,13.1-11.2,24-24,23.8
			C182.8,250.5,172.1,239.5,172.5,226.6z"/>
		<path d="M112.7,203.1c13,0.2,23.6,10.7,23.8,23.7c0.1,12.9-11,24-23.9,23.9c-13.1,0-23.8-10.8-23.7-23.9
			C88.9,213.7,99.6,203.1,112.7,203.1L112.7,203.1z"/>
		<path class="st2" d="M154.5,56.4c33.1,0,66.2,0,99.2-0.1c2.6,0,2.9,0.8,2.4,3c-5.9,28.2-11.7,56.4-17.4,84.6c-0.4,2-1,2.8-3.3,2.8
			c-54-0.1-108-0.1-161.9,0c-2,0-2.8-0.4-3.3-2.6c-5.8-28.5-11.7-57.1-17.7-85.6c-0.5-2.3,0.6-2.2,2.2-2.2
			C88,56.4,121.2,56.4,154.5,56.4z"/>
		<path class="st1" d="M223.9,56.3v37.1c0,9.9-4.3,18-9.7,18h-22.6c-5.3,0-9.7-8-9.7-18V56.2"/>
		<polyline class="st0" points="136.9,56.4 136.9,116.5 89.5,116.5 89.5,56.4 		"/>
		<path class="st2" d="M196.3,216.4c5.8,0,10.5,4.7,10.6,10.5s-4.7,10.5-10.5,10.6s-10.5-4.7-10.6-10.5c0-0.1,0-0.2,0-0.2
			C185.9,221,190.6,216.5,196.3,216.4z"/>
		<path class="st2" d="M102.2,227c0-5.8,4.6-10.5,10.4-10.6c5.8,0,10.5,4.6,10.6,10.4s-4.6,10.5-10.4,10.6
			C106.9,237.5,102.2,232.8,102.2,227L102.2,227z"/>
	</g>
</g>
</svg>
